<?xml version="1.0" encoding="UTF-8" standalone="no"?>
<svg xmlns="http://www.w3.org/2000/svg" xmlns:xlink="http://www.w3.org/1999/xlink" height="35" viewBox="0 0 150 60" width="102"><path d="m20.3 23.2h-3.3v-3.2h7v10.1c2.3-1.9 4.1-2.6 6.1-2.6 2.9 0 5.1 1.4 5.1 5.6v10.1h3.1v3.2h-6.8v-12.5c0-1.8-.5-3.1-2.3-3.1-1.3 0-3.2.9-5.2 2.4v10.1h3.1v3.2h-10.2v-3.2h3.3v-20.1z" fill="#383331"/><path d="m43.1 31.3h-2.9v-3.2h6.6v15.2h2.9v3.2h-9.5v-3.2h2.9z" fill="#383331"/><path d="m51.4 31.3h-3.2v-3.2h9.3v3.2h-2.5l4 10.4 4-10.4h-2.6v-3.2h9v3.2h-2.8l-5.9 15.5h-3.2z" fill="#383331"/><path d="m73 38.2c.5 3.6 2.9 5.6 6.3 5.6 2.4 0 4.6-1 5.9-3l3.2 1.4c-2 3.1-5.3 4.8-9.2 4.8-5.9 0-10.2-4-10.2-9.7 0-5.9 4.9-9.7 9.6-9.7 5.1 0 9.8 3.9 9.8 10.6zm11.7-2.7c-.6-2.9-3.1-5.1-6-5.1s-5.1 2-5.6 5.1z" fill="#383331"/><path d="m48.8 20c-.2-.9-.1-1.8.3-2.6.9-2.2 2.7-3.6 4.8-4.5 1.8-.8 3.8-.9 5.7-1 1.4-.1 2.8 0 4.1.5 1.5.5 2.4 1.5 2.8 3-.7.8-1.6 1.5-2.5 2-2.6 1.5-5.5 2.3-8.5 2.5-2 .2-4 .1-6-.2-.3.1-.5.1-.7.3z" fill="#fedd00"/><path d="m48.8 20c0-.3.1-.5.4-.4 1.4.3 2.9.3 4.3.3 2.4 0 4.8-.4 7.1-1.2 1.7-.6 3.3-1.3 4.7-2.4.4-.3.7-.7 1.2-.9.6 1.8 0 3.4-1.1 4.8-1.9 2.4-4.6 3.6-7.5 4.3-2.4.5-4.8.2-6.9-1.2-1.1-.7-2-1.8-2.2-3.3z" fill="#fed000"/><path d="m38.9 15c-.6-1-.9-2.1-.9-3.3.1-1.4.9-2.3 2.5-2.6 1.7-.4 3.2.2 4.5 1.2.7.5 1.2 1.1 1.5 1.9-.5.6-1.2 1-1.9 1.4-1.6.9-3.3 1.3-5.1 1.4-.2.1-.4.1-.6 0z" fill="#fedd00"/><path d="m38.9 15c.4-.2.9-.1 1.4-.2 2.3-.3 4.3-1.1 6.1-2.5h.1c.7 1.4.9 3 .5 4.5s-1.6 2.3-3.1 2c-2.2-.5-3.8-1.8-5-3.8z" fill="#fed000"/><path d="m47.9 21.8c.4 1.2-.1 2.3-.8 3.3-1 1.4-3.2 2.2-4.8 1.7-.8-.2-1.2-.8-1.2-1.6.1-.6.2-1.3.5-1.8.2-.1.4-.1.6-.1 1.9.2 3.6-.3 5.2-1.3.2-.1.3-.2.5-.2z" fill="#fed000"/><path d="m47.9 21.8c-1.2.9-2.6 1.4-4.1 1.5-.7.1-1.4-.1-2.1 0 .8-1.6 2-2.7 3.8-2.9.9-.1 2 .5 2.4 1.4z" fill="#fedd00"/><path d="m54.7 13.8c.2 0 .4 0 .5.2.1.3-.2.4-.4.5-.4.3-.9.5-1.4.8-.2.2-.5.2-.7 0-.2-.3-.3-.6 0-.9.5-.3 1.3-.6 2-.6z" fill="#fefefd"/><path d="m40 10.7c-.1.3.1.8-.5.9-.4 0-.4-.4-.4-.7s.4-.8.7-.7c.3 0 .2.3.2.5z" fill="#fefdf8"/><path d="m44.3 21.6c.2 0 .6 0 .6.3s-.2.4-.5.5c-.1 0-.2 0-.3 0-.2 0-.6.2-.7-.1s.2-.6.6-.7z" fill="#fefdf8"/><g fill="#383331"><path d="m89.9 44.4h2v2h-2z"/><path d="m100.9 41.5h-1.4c-.1-.6-.3-1-.7-1.3s-.8-.5-1.4-.5c-1.4 0-2.4 1.1-2.4 2.7 0 1.7 1 2.9 2.4 2.9 1.1 0 1.9-.6 2.4-1.6l1.3.6c-.7 1.6-2 2.4-3.8 2.4-2.8 0-4.1-2.3-4.1-4.3 0-2.3 1.7-4.2 3.9-4.2.9 0 1.7.3 2.3.8v-.5h1.4v3z"/><path d="m106.4 38.2c2.4 0 4.2 1.8 4.2 4.2s-1.8 4.2-4.2 4.2-4.2-1.8-4.2-4.2 1.8-4.2 4.2-4.2zm0 7c1.4 0 2.5-1.2 2.5-2.7s-1.1-2.7-2.5-2.7-2.5 1.2-2.5 2.7c-.1 1.5 1 2.7 2.5 2.7z"/><path d="m111.8 44.4h2v2h-2z"/><path d="m123.3 46.4h-3v-.9c-.9.7-1.8 1.1-2.6 1.1-1.5 0-2.2-.8-2.2-2.5v-4.3h-1.1v-1.4h2.7v5.6c0 .8.3 1.2.9 1.2.7 0 1.6-.4 2.3-1v-4.3h-1.3v-1.4h3v6.6h1.4v1.3z"/><path d="m125.4 36.3h-1.4v-1.4h3v7.2l3-2.4h-1.3v-1.3h4.4v1.3h-1.2l-3 2.5 2.8 2.8h1.4v1.4h-2l-4-4v2.6h1.2v1.4h-4.2v-1.4h1.5v-8.7z"/></g></svg>
