<?xml version="1.0" encoding="UTF-8" standalone="no"?>
<svg xmlns="http://www.w3.org/2000/svg" xmlns:xlink="http://www.w3.org/1999/xlink" height="35" viewBox="0 12 150 30" width="102"><path d="M10.5 20.6c.3-.1.5-.3.8-.3 4.2-.2 6-.1 6.3.4-.5.3-1.2.5-1.4.9-.2.5-.1 1.2.1 1.8 1 3.3 2.1 6.6 3.2 10.1.2-.4.3-.7.4-.9 1-2.9 2-5.8 2.9-8.7.5-1.7.3-2.2-1.4-3l-.3-.3c.2-.1.3-.3.5-.3h5.1c.2 0 .4.2.8.5-1.7.4-2.1.8-1.7 2.1l3.3 10.2c0 .1.1.1.2.2.1-.3.3-.5.3-.8 1-2.9 2-5.9 2.9-8.8.1-.3.2-.5.2-.8.2-1.1-.2-1.7-1.2-2.1-.2-.1-.3-.2-.4-.3.1-.1.3-.3.4-.3h4.6c.1 0 .3.2.4.3-.1.1-.3.3-.4.3-1.3 0-1.8.9-2.2 2-1.7 4.7-3.3 9.4-5 14.1-.1.3-.4.6-.7.9-.2-.3-.6-.5-.7-.9-1.4-4-2.7-8-4.1-12.2-.2.5-.3.9-.5 1.2-1.3 3.7-2.6 7.3-3.9 11-.1.3-.5.6-.7.8-.2-.3-.5-.5-.6-.9-1.6-4.5-3.2-9.1-4.7-13.7-.5-1.3-1-2.5-2.8-2.4.3.1.3 0 .3-.1zM105.5 37c.1 0 .3-.1.4-.1 1.5-.5 1.5-.6 1.5-2.2v-5c-.1-2-.1-2-1.9-2.8 1.1-.3 2.3-.6 3.5-.9.1.8.3 1.4.4 2.3 1.2-1.8 2.8-2.4 4.7-2.3 2.1.1 3.2 1.3 3.3 3.4v5.5c0 1.4.1 1.5 1.5 2 .1 0 .2.2.5.4h-5.9c0-.1-.1-.1-.1-.2.2-.1.4-.3.6-.3 1-.1 1.3-.7 1.3-1.6v-5.5c0-1.9-.8-2.9-2.1-3-1.7-.1-3.3 1-3.4 2.7-.2 2.1-.1 4.2 0 6.3 0 .4.5.7.9 1 .2.2.6.2.9.3 0 .1 0 .2-.1.2h-5.7c-.2-.1-.3-.1-.3-.2zM98.5 37.6c-3.4 0-6.2-2.7-6.2-6 0-3.1 2.8-5.7 6.2-5.7s6.2 2.6 6.2 5.8c.1 3.4-2.6 5.9-6.2 5.9zm3.9-5.8c-.3-1.2-.5-2.5-1-3.6-1.1-2.3-4.4-2.4-5.6-.2-1.3 2.4-1.3 5-.1 7.5.6 1.2 1.7 1.6 3 1.6s2.3-.7 2.8-1.9c.4-1.1.6-2.2.9-3.4zM41.3 36.1c-1.3.5-2.5 1.1-3.7 1.4-1.5.4-2.8-.3-3.2-1.4s0-2.4 1.3-3.2c1.4-.9 2.9-1.6 4.4-2.2 1.2-.5.9-1.3.9-2.2s-.4-1.7-1.4-1.8c-.7-.1-1.5-.2-2.2 0-.4.1-.8.7-1.1 1.1-.2.2-.1.7-.3.8-.3.2-.8.5-1.1.4s-.7-.7-.6-.9c.1-.5.5-1.1.9-1.3 2-1 4.1-1.1 6.3-.5 1.1.3 1.5 1.3 1.6 2.3.1 1.8.1 3.5.1 5.3 0 .5 0 1.1.1 1.6.2 1 .8 1.2 1.6.5.1-.1.3-.2.6-.2-.2.9-.8 1.5-1.7 1.7-1.3.3-2.1-.5-2.5-1.4zm-.2-5l-.3-.3c-1.2.8-2.5 1.6-3.6 2.5-.7.6-.8 1.6-.3 2.5.4.7 1.1.9 1.8.7 1-.2 2.2-.6 2.4-1.7s0-2.4 0-3.7zM64.7 30.3h-7.8c-.8 1.9.1 4.8 1.8 5.9 1.6 1.1 3.3.7 5.2-1.2.7.3.4.7 0 1-1.8 1.8-4.9 2.1-7.2.8-2.2-1.3-3.2-3.8-2.4-6.5 1-3.5 4.6-5.3 7.9-4 1.6.8 2.6 2.1 2.5 4zm-7.8-.6h4.7c.2 0 .7-.5.7-.8 0-1.3-.9-2.2-2.1-2.3-1.9-.2-3 .9-3.3 3.1zM130.4 30.4h-7.8c-.7 2.2.3 4.9 2 6 1.6.9 3.2.5 5-1.3.6.4.6.4.1.9-1.7 1.8-4.8 2.2-7.2.9-2.3-1.3-3.2-3.9-2.5-6.6 1-3.5 4.6-5.3 7.9-3.9 1.7.7 2.7 2.1 2.5 4zm-7.8-.7h4.7c.3 0 .7-.4.7-.7.2-1.2-.8-2.3-2-2.4-1.8-.3-3.1.8-3.4 3.1zM131.9 37.6v-3.7c.1 0 .1-.1.2-.1.2.3.3.7.5 1 .7 1.7 1.9 2.5 3.4 2.2.8-.1 1.5-.5 1.5-1.3 0-.6-.2-1.4-.6-1.9s-1.1-.7-1.7-1.1c-.7-.4-1.4-.8-2-1.2-1.2-.9-1.5-2.2-1.1-3.5s1.6-2.1 3-2c.5 0 1 .2 1.6.2.5.1 1.1.1 1.8.1V29.1c-.1 0-.2.1-.3.1-.2-.3-.4-.5-.5-.8-.4-.9-1-1.8-2.1-1.9-.8-.1-1.5.1-1.8.9s0 1.4.7 1.9c.4.3.8.5 1.2.7.6.4 1.3.7 1.9 1 1.7 1 2.3 2.4 1.8 4.1-.4 1.5-2.1 2.5-3.9 2.4-.9-.1-1.7-.4-2.7-.7-.2.2-.4.4-.9.8zM77 36.8c-.3.2-.5.4-.9.7v-3.7c.1 0 .2 0 .3-.1.2.4.4.9.6 1.3.7 1.6 2 2.3 3.4 1.9.6-.2 1.3-.7 1.4-1.2.2-.6-.1-1.4-.5-1.9s-1.2-.8-1.8-1.2c-.7-.4-1.4-.8-2-1.2-1.1-.9-1.5-2.2-1.1-3.5.4-1.2 1.6-2.1 3-2 .6 0 1.2.2 1.8.3h1.5V29c-.1 0-.1.1-.2.1-.2-.3-.4-.5-.5-.8-.6-1.4-1.4-2-2.5-1.8-.5.1-1.2.5-1.4.9s.1 1.1.4 1.6c.2.4.8.6 1.2.9.9.5 1.8.9 2.6 1.5 1.2.8 1.7 2 1.4 3.5-.3 1.4-1.3 2.4-2.7 2.7-1.5.2-2.8-.1-4-.8zM69.4 25.9c.1.8.3 1.5.4 2.3.3-.4.6-.8.9-1.1.9-.9 2-1.3 3.2-1.1.4.1 1 .3 1.1.7.2.3 0 .9-.1 1.3-.4-.1-1 0-1.3-.2-1.1-1.1-2.4-1.1-3.1.4-.3.8-.5 1.8-.5 2.7-.1 1.3 0 2.7 0 4 0 1.4.1 1.6 1.5 1.9.2 0 .3.1.4.4H66c0-.1 0-.1-.1-.2.2-.1.3-.2.5-.3 1-.1 1.3-.7 1.3-1.7v-5.6c0-2 0-2-1.8-2.7 1.1-.1 2.3-.4 3.5-.8zM88.2 23.4v2.9h2.9c-.1.7-.1.7-1.2.7h-1.6c0 2.8-.1 5.6 0 8.3.1 1.5 1.6 2 2.7 1.1.3-.2.5-.4.7-.7.1 0 .2.1.3.1-.1.3-.1.6-.3.8-.7.9-2.7 1.3-4.1.8-1.1-.4-1.6-1.1-1.6-2.7v-7.6c-.5-.1-.9-.2-1.3-.2l3.5-3.5zM49.4 23.4v2.9h2.2c.3 0 .5.2.8.3-.3.1-.5.3-.8.3h-2.1v5.2c0 1-.1 2 .1 3 .1.5.5 1.3.9 1.4.6.2 1.3-.2 1.9-.4.3-.1.5-.2.8-.4-.1.3-.1.7-.3.9-.8.9-2.8 1.1-4.1.6s-1.5-1.6-1.5-2.8V27c-.5-.1-.9-.2-1.3-.3 1.1-1 2.2-2.1 3.4-3.3z"/></svg>